<?xml version="1.0" encoding="UTF-8" standalone="no"?>
<svg
   xmlns:dc="http://purl.org/dc/elements/1.1/"
   xmlns:cc="http://creativecommons.org/ns#"
   xmlns:rdf="http://www.w3.org/1999/02/22-rdf-syntax-ns#"
   xmlns:svg="http://www.w3.org/2000/svg"
   xmlns="http://www.w3.org/2000/svg"
   xmlns:xlink="http://www.w3.org/1999/xlink"
   xmlns:sodipodi="http://sodipodi.sourceforge.net/DTD/sodipodi-0.dtd"
   xmlns:inkscape="http://www.inkscape.org/namespaces/inkscape"
   viewBox="0 0 128 128"
   version="1.1"
   id="svg1359"
   sodipodi:docname="icon.svg"
   inkscape:version="1.0.2 (e86c870879, 2021-01-15)"
   inkscape:export-filename="./icon.png"
   inkscape:export-xdpi="48"
   inkscape:export-ydpi="48">
  <metadata
     id="metadata1365">
    <rdf:RDF>
      <cc:Work
         rdf:about="">
        <dc:format>image/svg+xml</dc:format>
        <dc:type
           rdf:resource="http://purl.org/dc/dcmitype/StillImage" />
        <dc:title />
      </cc:Work>
    </rdf:RDF>
  </metadata>
  <defs
     id="defs1363">
    <rect
       x="-346.37855"
       y="-274.47319"
       width="381.98738"
       height="164.05678"
       id="rect3610" />
    <clipPath
       clipPathUnits="userSpaceOnUse"
       id="clipPath1505">
      <path
         d="M 47.999,82.197 H 595.275 V 685.984 H 47.999 Z"
         id="path1503" />
    </clipPath>
    <clipPath
       clipPathUnits="userSpaceOnUse"
       id="clipPath2127">
      <path
         d="M 47.999,82.197 H 595.275 V 685.984 H 47.999 Z"
         id="path2125" />
    </clipPath>
    <clipPath
       clipPathUnits="userSpaceOnUse"
       id="clipPath2143">
      <path
         d="M 47.999,154.676 H 595.275 V 685.984 H 47.999 Z"
         id="path2141" />
    </clipPath>
    <clipPath
       clipPathUnits="userSpaceOnUse"
       id="clipPath2159">
      <path
         d="M 47.999,82.197 H 595.275 V 685.984 H 47.999 Z"
         id="path2157" />
    </clipPath>
    <clipPath
       clipPathUnits="userSpaceOnUse"
       id="clipPath2175">
      <path
         d="M 47.999,154.676 H 595.275 V 685.984 H 47.999 Z"
         id="path2173" />
    </clipPath>
    <clipPath
       clipPathUnits="userSpaceOnUse"
       id="clipPath2191">
      <path
         d="M 47.999,82.197 H 595.275 V 685.984 H 47.999 Z"
         id="path2189" />
    </clipPath>
    <clipPath
       clipPathUnits="userSpaceOnUse"
       id="clipPath2207">
      <path
         d="M 47.999,154.676 H 595.275 V 685.984 H 47.999 Z"
         id="path2205" />
    </clipPath>
  </defs>
  <sodipodi:namedview
     pagecolor="#ffffff"
     bordercolor="#666666"
     borderopacity="1"
     objecttolerance="10"
     gridtolerance="10"
     guidetolerance="10"
     inkscape:pageopacity="0"
     inkscape:pageshadow="2"
     inkscape:window-width="1590"
     inkscape:window-height="836"
     id="namedview1361"
     showgrid="false"
     inkscape:zoom="0.8755971"
     inkscape:cx="20.132903"
     inkscape:cy="-19.560346"
     inkscape:window-x="0"
     inkscape:window-y="0"
     inkscape:window-maximized="1"
     inkscape:current-layer="svg1359"
     inkscape:document-rotation="0" />
  <linearGradient
     id="a">
    <stop
       offset="0"
       stop-color="#18a303"
       id="stop1254" />
    <stop
       offset="1"
       stop-color="#43c330"
       id="stop1256" />
  </linearGradient>
  <linearGradient
     id="b"
     gradientUnits="userSpaceOnUse"
     x1="546"
     x2="458"
     xlink:href="#a"
     y1="121.99995"
     y2="5.99995"
     gradientTransform="translate(182.25552,-223.08202)" />
  <linearGradient
     id="c"
     gradientUnits="userSpaceOnUse"
     x1="508.06174"
     x2="508.06174"
     y1="109.9985"
     y2="83.998497"
     gradientTransform="translate(182.25552,-223.08202)">
    <stop
       offset="0"
       stop-color="#727272"
       id="stop1260" />
    <stop
       offset="1"
       stop-color="#9a9a9a"
       id="stop1262" />
  </linearGradient>
  <linearGradient
     id="d"
     gradientTransform="matrix(0.948718,0,0,1.3,-106.13024,1268.6453)"
     gradientUnits="userSpaceOnUse"
     x1="829.36053"
     x2="829.36053"
     y1="-1064.7994"
     y2="-1082.3413">
    <stop
       offset="0"
       stop-color="#e4e4e4"
       id="stop1265" />
    <stop
       offset="1"
       stop-color="#f9f9f9"
       id="stop1267" />
  </linearGradient>
  <linearGradient
     id="e"
     gradientTransform="matrix(0.714286,0,0,-1.55555,307.32576,-1794.1857)"
     gradientUnits="userSpaceOnUse"
     x1="525.63947"
     x2="525.63947"
     y1="-1078.6444"
     y2="-1068.7872">
    <stop
       offset="0"
       stop-color="#63bbee"
       id="stop1270" />
    <stop
       offset="1"
       stop-color="#aadcf7"
       id="stop1272" />
  </linearGradient>
  <linearGradient
     id="f"
     gradientUnits="userSpaceOnUse"
     x1="512.65552"
     x2="512.65552"
     y1="95.0298"
     y2="85.998596"
     gradientTransform="translate(182.25552,-223.08202)">
    <stop
       offset="0"
       stop-color="#a33e03"
       id="stop1275" />
    <stop
       offset="1"
       stop-color="#c15414"
       id="stop1277" />
  </linearGradient>
  <linearGradient
     id="g"
     gradientTransform="matrix(0.714286,0,0,-2.11111,315.32576,-2393.1457)"
     gradientUnits="userSpaceOnUse"
     x1="525.63947"
     x2="525.63947"
     y1="-1078.6444"
     y2="-1068.7872">
    <stop
       offset="0"
       stop-color="#f09e6f"
       id="stop1280" />
    <stop
       offset="1"
       stop-color="#f9cfb5"
       id="stop1282" />
  </linearGradient>
  <linearGradient
     id="h"
     gradientTransform="matrix(0.714286,0,0,-0.888884,323.32576,-1075.4257)"
     gradientUnits="userSpaceOnUse"
     x1="525.63947"
     x2="525.63947"
     y1="-1078.6444"
     y2="-1068.7872">
    <stop
       offset="0"
       stop-color="#f5ce53"
       id="stop1285" />
    <stop
       offset="1"
       stop-color="#fde9a9"
       id="stop1287" />
  </linearGradient>
  <linearGradient
     id="i"
     gradientTransform="matrix(0.714286,0,0,-1.33333,331.32576,-1554.5957)"
     gradientUnits="userSpaceOnUse"
     x1="525.63947"
     x2="525.63947"
     y1="-1078.6444"
     y2="-1068.7872">
    <stop
       offset="0"
       stop-color="#8ee780"
       id="stop1290" />
    <stop
       offset="1"
       stop-color="#ccf4c6"
       id="stop1292" />
  </linearGradient>
  <linearGradient
     id="j"
     gradientUnits="userSpaceOnUse"
     x1="108.00134"
     x2="20.00134"
     y1="122"
     y2="6"
     gradientTransform="translate(-3.124027e-7)">
    <stop
       offset="0"
       stop-color="#e6e6e6"
       id="stop1295" />
    <stop
       offset="1"
       stop-color="#fff"
       id="stop1297" />
  </linearGradient>
  <linearGradient
     id="k"
     gradientTransform="matrix(7.99974,0,0,7.9977797,-873.96742,-7808.7674)"
     gradientUnits="userSpaceOnUse"
     x1="122.75008"
     x2="111.74973"
     xlink:href="#a"
     y1="991.62115"
     y2="977.11713" />
  <g
     id="g2121"
     transform="matrix(1.3333333,0,0,-1.3333333,-1025.6763,591.41791)">
    <g
       id="g2123"
       clip-path="url(#clipPath2127)">
      <text
         transform="matrix(1,0,0,-1,598.199,632.3868)"
         style="font-variant:normal;font-weight:normal;font-stretch:normal;font-size:10.08px;font-family:'Crimson Text';-inkscape-font-specification:CrimsonText-Regular;writing-mode:lr-tb;fill:#000000;fill-opacity:1;fill-rule:nonzero;stroke:none"
         id="text2131"><tspan
           x="0 3.1348801 8.4772797 11.57184 15.80544 19.54512 24.88752 29.05056 32.145119 34.796162 39.816002 45.158401 49.321442 51.791039 54.048962 60.55056 64.784157 69.693123 73.92672 76.396317 78.865921 81.51696 86.536797 152.46001 159.19344 161.84448 165.58417 170.61407 175.63393 179.3736 182.46815 184.72607 189.756 193.91904 199.00945 202.54752 294.00336 300.73679 304.72849 307.82303 310.08096 317.17728 322.19711 384.72336 390.34799 395.19647 399.43008 404.77249 407.86703"
           y="0"
           sodipodi:role="line"
           id="tspan2129">International RebellionAirport pauseAct NowEvents</tspan></text>
    </g>
  </g>
  <g
     id="g2153"
     transform="matrix(1.3333333,0,0,-1.3333333,-1025.6763,591.41791)">
    <g
       id="g2155"
       clip-path="url(#clipPath2159)">
      <text
         transform="matrix(1,0,0,-1,607.439,454.9369)"
         style="font-variant:normal;font-weight:normal;font-stretch:normal;font-size:10.08px;font-family:'Crimson Text';-inkscape-font-specification:CrimsonText-Regular;writing-mode:lr-tb;fill:#000000;fill-opacity:1;fill-rule:nonzero;stroke:none"
         id="text2163"><tspan
           x="0 6.4612799 9.1123199 12.20688 14.85792 18.930241 23.163839 28.506241 32.044319 34.302238 41.035679 44.573761 48.111839 52.34544 60.217918 65.126877 67.596481 148.25664 154.71793 159.73776 167.61024 175.48273 180.57312 185.91553 188.56656 191.66112 292.73328 298.32767 302.56128 307.22833 311.39136 400.66992 407.1312 409.6008 412.25183 420.12433 424.28735 427.38193 431.61551 433.87344 438.10703 445.97952 450.21313 453.95279 458.61984 462.85345 468.19583 472.18753"
           y="0"
           sodipodi:role="line"
           id="tspan2161">Citizens AssemblyCommunityLegalClimate emergency</tspan></text>
    </g>
  </g>
  <g
     id="g2185"
     transform="matrix(1.3333333,0,0,-1.3333333,-1025.6763,591.41791)">
    <g
       id="g2187"
       clip-path="url(#clipPath2191)">
      <text
         transform="matrix(1,0,0,-1,617.939,277.4869)"
         style="font-variant:normal;font-weight:normal;font-stretch:normal;font-size:10.08px;font-family:'Crimson Text';-inkscape-font-specification:CrimsonText-Regular;writing-mode:lr-tb;fill:#000000;fill-opacity:1;fill-rule:nonzero;stroke:none"
         id="text2195"><tspan
           x="0 6.5822401 10.81584 13.28544 15.75504 18.01296 21.107519 26.32896 30.562559 32.82048 39.402721 43.142399 48.2328 51.327358 154.55664 161.65295 165.88657 173.11392 274.25665 280.75824 284.99185 288.52991 293.54977 298.64017 302.37985 306.37152 310.60513 386.82001 393.40225 398.62369 401.27472 404.81281 407.07071 409.72177 413.25983 415.51776 419.68079 425.02319 427.28113 432.90576 440.77823 445.01184 448.75153 453.41855 457.65216 462.99457 466.98624"
           y="0"
           sodipodi:role="line"
           id="tspan2193">Tell the TruthNewsResourcesThis is an Emergency</tspan></text>
    </g>
  </g>
  <path
     id="path932"
     style="fill:#14aa37;fill-opacity:1;stroke:#ffffff;stroke-width:13.6884;stroke-linecap:round;stroke-linejoin:round;stroke-miterlimit:4;stroke-dasharray:none;stroke-opacity:1;paint-order:fill markers stroke;stop-color:#000000"
     d="M 20.651934,7.441465 H 94.990341 L 114.76132,27.266472 V 121.26403 H 20.651934 Z"
     sodipodi:nodetypes="cccccc" />
  <path
     id="rect3585"
     style="fill:#14aa37;fill-opacity:1;stroke:#000000;stroke-width:7.39077;stroke-linecap:round;stroke-linejoin:round;stroke-miterlimit:4;stroke-dasharray:none;stroke-opacity:1;paint-order:fill markers stroke;stop-color:#000000"
     d="M 20.651934,7.441465 H 94.990341 L 114.76132,27.266472 V 121.26403 H 20.651934 Z"
     sodipodi:nodetypes="cccccc" />
  <g
     id="g3606"
     transform="matrix(1.0887996,0,0,1.0887996,-3.8912889,-19.156867)"
     style="fill:#000000;stroke-width:0.898003">
    <g
       id="g3567"
       transform="matrix(0.83792696,0,0,-0.83792696,90.268,78.851985)"
       style="fill:#000000;stroke-width:1.42893">
      <path
         d="m 0,0 c -1.357,-1 -3.045,-1.555 -4.708,-1.555 -0.777,0 -1.533,0.111 -2.289,0.333 -1.311,0.4 -2.512,1.111 -3.444,2.111 -0.777,0.822 -1.378,1.799 -1.756,2.843 -0.466,-0.599 -0.999,-1.11 -1.6,-1.554 -1.352,-1 -3.041,-1.556 -4.708,-1.556 -0.777,0 -1.533,0.111 -2.289,0.333 -2.046,0.6 -3.709,1.977 -4.734,3.844 -0.197,0.355 -0.352,0.755 -0.508,1.133 -0.47,-0.622 -1.025,-1.178 -1.646,-1.644 -1.357,-1 -3.045,-1.555 -4.708,-1.555 -0.777,0 -1.533,0.111 -2.289,0.333 -2.046,0.6 -3.709,1.977 -4.734,3.843 -0.512,0.934 -0.823,1.956 -0.911,3 -0.933,-0.178 -1.865,-0.244 -2.823,-0.244 h -5.531 V 6.243 c 10.088,-2.933 13.843,-10.22 15.2,-15.863 0.689,-2.844 0.865,-5.576 0.819,-7.709 H -34.7 c 0.021,1.999 -0.135,4.577 -0.782,7.243 -0.844,3.421 -2.31,6.353 -4.397,8.687 -2.6,2.932 -6.174,4.954 -10.618,5.998 l -0.222,0.044 v 7.021 h 7.551 c 0.803,0 1.622,0.067 2.424,0.222 0.021,0 0.042,0 0.067,0.022 0.042,0 0.067,0.022 0.109,0.022 0.823,0.156 1.647,0.4 2.424,0.689 l 0.042,0.023 c 0.046,0.022 0.088,0.022 0.113,0.044 0.109,0.045 0.244,0.111 0.378,0.155 0.042,0.023 0.088,0.045 0.13,0.067 l 0.025,0.023 c 0.11,0.044 0.244,0.11 0.378,0.177 l 0.042,0.022 c 0.269,0.134 0.534,0.267 0.803,0.422 0.021,0 0.042,0.022 0.042,0.022 0.021,0.023 0.046,0.023 0.067,0.045 0.113,0.067 0.243,0.133 0.332,0.2 0.046,0.045 0.113,0.067 0.155,0.111 0.113,0.067 0.223,0.156 0.311,0.222 0.046,0.023 0.067,0.045 0.113,0.089 l 0.046,0.023 c 0.332,0.244 0.664,0.51 0.996,0.777 l 0.046,0.045 c 0.046,0.044 0.088,0.066 0.134,0.111 0.068,0.066 0.156,0.133 0.265,0.244 0.067,0.067 0.113,0.111 0.181,0.178 0.067,0.066 0.155,0.155 0.243,0.244 0.042,0.044 0.088,0.089 0.135,0.156 l 0.042,0.044 c 0.113,0.133 0.243,0.267 0.357,0.377 l 0.021,0.045 c 0.067,0.067 0.134,0.133 0.176,0.222 0.046,0.067 0.092,0.134 0.155,0.178 l 0.047,0.045 c 0.067,0.066 0.134,0.155 0.176,0.244 0.067,0.067 0.113,0.156 0.181,0.244 0.042,0.067 0.109,0.156 0.176,0.267 l 0.021,0.044 c 0.046,0.067 0.088,0.134 0.134,0.178 0.068,0.111 0.135,0.222 0.244,0.355 0.046,0.089 0.113,0.178 0.155,0.267 0.089,0.156 0.156,0.267 0.223,0.378 0.021,0.067 0.067,0.111 0.088,0.177 l 0.025,0.045 c 0.063,0.111 0.11,0.222 0.156,0.333 0.042,0.067 0.063,0.156 0.109,0.222 0.046,0.111 0.109,0.222 0.155,0.356 0,0.022 0.021,0.044 0.021,0.067 0.026,0.044 0.047,0.088 0.047,0.111 0.067,0.178 0.155,0.377 0.222,0.555 0,0.022 0.021,0.067 0.021,0.089 0,0.022 0.021,0.044 0.021,0.067 0.067,0.155 0.114,0.289 0.156,0.422 0.025,0.066 0.046,0.133 0.067,0.177 v 0.023 c 0.046,0.133 0.067,0.266 0.113,0.399 v 0.023 c 0.021,0.066 0.021,0.111 0.042,0.177 0.046,0.156 0.067,0.311 0.114,0.489 0,0.022 0,0.045 0.021,0.067 0,0.022 0,0.044 0.021,0.067 0.046,0.199 0.067,0.4 0.113,0.621 0,0.045 0,0.067 0.021,0.112 v 0.067 c 0.021,0.155 0.046,0.31 0.067,0.466 0,0.066 0.021,0.133 0.021,0.222 0.025,0.133 0.025,0.289 0.046,0.444 v 0.067 0.134 c 0,0.133 0,0.244 0.021,0.354 h -27.858 c -1,0 -1.932,-0.221 -2.823,-0.644 -0.176,-0.088 -0.378,-0.199 -0.554,-0.311 -0.088,-0.044 -0.181,-0.111 -0.269,-0.177 -0.264,-0.178 -0.508,-0.378 -0.731,-0.578 -0.067,-0.067 -0.155,-0.133 -0.222,-0.222 -0.513,-0.511 -0.958,-1.111 -1.269,-1.777 -0.042,-0.089 -0.088,-0.2 -0.13,-0.289 -0.336,-0.8 -0.512,-1.667 -0.512,-2.533 V -3.932 c 0,-0.711 0.109,-1.4 0.332,-2.066 0.155,-0.467 0.357,-0.889 0.6,-1.311 0.202,-0.333 0.424,-0.645 0.689,-0.933 0.067,-0.089 0.155,-0.178 0.244,-0.245 0.088,-0.089 0.155,-0.155 0.243,-0.244 h 0.025 l 12.42,-12.708 v -26.949 h 37.59 v 25.705 L 1.865,-8.931 c 0.18,0.155 0.357,0.333 0.512,0.511 1.067,1.2 1.689,2.777 1.689,4.488 V 7.998 L 2.911,4.132 C 2.423,2.466 1.399,1.044 0,0"
         style="fill:#000000;fill-opacity:1;fill-rule:nonzero;stroke:none;stroke-width:1.42893"
         id="path3565" />
    </g>
    <g
       id="g3571"
       transform="matrix(0.83792696,0,0,-0.83792696,70.53532,68.296538)"
       style="fill:#000000;stroke-width:1.42893">
      <path
         d="m 0,0 c -0.046,-0.111 -0.332,-1.155 -0.487,-1.733 -0.088,-0.288 -0.135,-0.511 -0.156,-0.555 -0.936,-3.133 0.845,-6.443 3.974,-7.377 0.558,-0.155 1.134,-0.244 1.713,-0.244 1.243,0 2.487,0.4 3.511,1.155 1.042,0.778 1.798,1.822 2.176,3.066 l 0.466,1.8 5.998,20.039 c 0.378,1.29 -0.353,2.644 -1.621,3.022 l -6.687,2 c -0.222,0.066 -0.466,0.111 -0.689,0.111 -1.066,0 -2.02,-0.711 -2.335,-1.733 z"
         style="fill:#000000;fill-opacity:1;fill-rule:nonzero;stroke:none;stroke-width:1.42893"
         id="path3569" />
    </g>
    <g
       id="g3575"
       transform="matrix(0.83792696,0,0,-0.83792696,67.37148,55.972387)"
       style="fill:#000000;stroke-width:1.42893">
      <path
         d="m 0,0 v -1.756 c 0,-3.443 -1.088,-6.731 -3.179,-9.486 -1,-1.333 -2.197,-2.489 -3.554,-3.444 -1.31,-0.933 -2.755,-1.644 -4.267,-2.132 0.067,-1.155 0.466,-2.311 1.155,-3.266 0.756,-1.022 1.823,-1.778 3.066,-2.155 0.559,-0.156 1.134,-0.245 1.714,-0.245 1.243,0 2.486,0.4 3.507,1.155 1.046,0.778 1.802,1.822 2.18,3.089 l 1.02,3.643 6.645,22.239 C 8.665,8.931 7.93,10.286 6.665,10.664 l -6.686,2 c -0.223,0.066 -0.47,0.111 -0.693,0.111 -1.063,0 -2.02,-0.712 -2.331,-1.733 L -6.355,0 Z"
         style="fill:#000000;fill-opacity:1;fill-rule:nonzero;stroke:none;stroke-width:1.42893"
         id="path3573" />
    </g>
    <g
       id="g3579"
       transform="matrix(0.83792696,0,0,-0.83792696,63.70438,44.393497)"
       style="fill:#000000;stroke-width:1.42893">
      <path
         d="m 0,0 c 0.176,0.622 0.109,1.267 -0.202,1.844 -0.31,0.578 -0.823,1 -1.444,1.177 l -6.687,2 c -0.222,0.067 -0.466,0.111 -0.689,0.111 -1.066,0 -2.02,-0.711 -2.331,-1.733 l -5.157,-17.217 h 12.356 z"
         style="fill:#000000;fill-opacity:1;fill-rule:nonzero;stroke:none;stroke-width:1.42893"
         id="path3577" />
    </g>
    <g
       id="g3583"
       transform="matrix(0.83792696,0,0,-0.83792696,94.12171,57.573584)"
       style="fill:#000000;stroke-width:1.42893">
      <path
         d="m 0,0 -6.686,2 c -0.223,0.066 -0.467,0.11 -0.689,0.11 -1.067,0 -2.02,-0.71 -2.331,-1.732 l -5.133,-17.13 v -0.022 c -0.067,-0.177 -0.134,-0.333 -0.18,-0.488 -0.933,-3.133 0.844,-6.444 3.977,-7.376 0.555,-0.156 1.134,-0.245 1.709,-0.245 1.248,0 2.491,0.4 3.512,1.155 1.046,0.778 1.802,1.822 2.18,3.088 L 1.621,-2.999 C 2.024,-1.755 1.289,-0.4 0,0"
         style="fill:#000000;fill-opacity:1;fill-rule:nonzero;stroke:none;stroke-width:1.42893"
         id="path3581" />
    </g>
  </g>
  <path
     style="fill:#000000;stroke:#000000;stroke-width:0.977745px;stroke-linecap:butt;stroke-linejoin:miter;stroke-opacity:1"
     d="m 102.48751,4.6029217 h 15.55755 V 20.274597 Z"
     id="path941" />
  <text
     xml:space="preserve"
     style="font-style:normal;font-variant:normal;font-weight:normal;font-stretch:normal;font-size:114.713px;line-height:1.25;font-family:'Latin Modern Roman Dunhill';-inkscape-font-specification:'Latin Modern Roman Dunhill';letter-spacing:-9.63687px;fill:#000000;fill-opacity:1;stroke:#ffffff;stroke-width:5;stroke-opacity:1;stroke-miterlimit:4;stroke-dasharray:none;paint-order:stroke markers fill"
     x="140.26791"
     y="117.38608"
     id="text77"
     transform="scale(0.93912392,1.0648222)"><tspan
       sodipodi:role="line"
       id="tspan75"
       x="140.26791"
       y="117.38608"
       style="font-style:normal;font-variant:normal;font-weight:normal;font-stretch:normal;font-family:'Latin Modern Roman Dunhill';-inkscape-font-specification:'Latin Modern Roman Dunhill';stroke-width:5;stroke:#ffffff;stroke-opacity:1;stroke-miterlimit:4;stroke-dasharray:none;paint-order:stroke markers fill">LibreAction</tspan></text>
</svg>
